<svg version="1.1" viewBox="0.0 0.0 459.0 460.0" fill="none" stroke="none" stroke-linecap="square" stroke-miterlimit="10" xmlns:xlink="http://www.w3.org/1999/xlink" xmlns="http://www.w3.org/2000/svg"><clipPath id="p.0"><path d="m0 0l459.0 0l0 460.0l-459.0 0l0 -460.0z" clip-rule="nonzero"/></clipPath><g clip-path="url(#p.0)"><path fill="#000000" fill-opacity="0.0" d="m0 0l459.0 0l0 460.0l-459.0 0z" fill-rule="evenodd"/><path fill="#000000" fill-opacity="0.0" d="m359.0656 6.6548557l-15.811005 3.8740158" fill-rule="evenodd"/><path stroke="#ff0000" stroke-width="3.0" stroke-linejoin="round" stroke-linecap="butt" d="m359.0656 6.6548557l-15.811005 3.8740158" fill-rule="evenodd"/><path fill="#000000" fill-opacity="0.0" d="m344.15045 10.110568l-186.26772 199.2441" fill-rule="evenodd"/><path stroke="#ff0000" stroke-width="3.0" stroke-linejoin="round" stroke-linecap="butt" d="m344.15045 10.110568l-186.26772 199.2441" fill-rule="evenodd"/><path fill="#000000" fill-opacity="0.0" d="m158.24872 208.16768l-66.173225 219.2126" fill-rule="evenodd"/><path stroke="#ff0000" stroke-width="3.0" stroke-linejoin="round" stroke-linecap="butt" d="m158.24872 208.16768l-66.173225 219.2126" fill-rule="evenodd"/><path fill="#000000" fill-opacity="0.0" d="m92.28563 426.21576l267.43304 -1.1338806" fill-rule="evenodd"/><path stroke="#ff0000" stroke-width="3.0" stroke-linejoin="round" stroke-linecap="butt" d="m92.28563 426.21576l267.43304 -1.1338806" fill-rule="evenodd"/><path fill="#000000" fill-opacity="0.0" d="m358.03674 7.0958004l0.34646606 417.92126" fill-rule="evenodd"/><path stroke="#ff0000" stroke-width="3.0" stroke-linejoin="round" stroke-linecap="butt" d="m358.03674 7.0958004l0.34646606 417.92126" fill-rule="evenodd"/><path fill="#ffff00" d="m321.22308 30.423885l0 0c0 -3.0875778 2.3267212 -5.5905514 5.196869 -5.5905514l0 0c1.3782959 0 2.7001343 0.5890026 3.6747131 1.637434c0.9746094 1.0484314 1.5221252 2.4704094 1.5221252 3.9531174l0 0c0 3.087574 -2.3266907 5.5905495 -5.1968384 5.5905495l0 0c-2.8701477 0 -5.196869 -2.5029755 -5.196869 -5.5905495z" fill-rule="evenodd"/><path stroke="#000000" stroke-width="1.0" stroke-linejoin="round" stroke-linecap="butt" d="m321.22308 30.423885l0 0c0 -3.0875778 2.3267212 -5.5905514 5.196869 -5.5905514l0 0c1.3782959 0 2.7001343 0.5890026 3.6747131 1.637434c0.9746094 1.0484314 1.5221252 2.4704094 1.5221252 3.9531174l0 0c0 3.087574 -2.3266907 5.5905495 -5.1968384 5.5905495l0 0c-2.8701477 0 -5.196869 -2.5029755 -5.196869 -5.5905495z" fill-rule="evenodd"/><path fill="#ffff00" d="m321.22308 424.8071l0 0c0 -3.0875854 2.3267212 -5.590576 5.196869 -5.590576l0 0c1.3782959 0 2.7001343 0.5890198 3.6747131 1.6374512c0.9746094 1.0484314 1.5221252 2.470398 1.5221252 3.953125l0 0c0 3.087555 -2.3266907 5.5905457 -5.1968384 5.5905457l0 0c-2.8701477 0 -5.196869 -2.5029907 -5.196869 -5.5905457z" fill-rule="evenodd"/><path stroke="#000000" stroke-width="1.0" stroke-linejoin="round" stroke-linecap="butt" d="m321.22308 424.8071l0 0c0 -3.0875854 2.3267212 -5.590576 5.196869 -5.590576l0 0c1.3782959 0 2.7001343 0.5890198 3.6747131 1.6374512c0.9746094 1.0484314 1.5221252 2.470398 1.5221252 3.953125l0 0c0 3.087555 -2.3266907 5.5905457 -5.1968384 5.5905457l0 0c-2.8701477 0 -5.196869 -2.5029907 -5.196869 -5.5905457z" fill-rule="evenodd"/><path fill="#ffff00" d="m289.60104 424.8071l0 0c0 -3.0875854 2.3267212 -5.590576 5.196869 -5.590576l0 0c1.3782654 0 2.7001038 0.5890198 3.6747131 1.6374512c0.9746094 1.0484314 1.5221252 2.470398 1.5221252 3.953125l0 0c0 3.087555 -2.3267212 5.5905457 -5.1968384 5.5905457l0 0c-2.8701477 0 -5.196869 -2.5029907 -5.196869 -5.5905457z" fill-rule="evenodd"/><path stroke="#000000" stroke-width="1.0" stroke-linejoin="round" stroke-linecap="butt" d="m289.60104 424.8071l0 0c0 -3.0875854 2.3267212 -5.590576 5.196869 -5.590576l0 0c1.3782654 0 2.7001038 0.5890198 3.6747131 1.6374512c0.9746094 1.0484314 1.5221252 2.470398 1.5221252 3.953125l0 0c0 3.087555 -2.3267212 5.5905457 -5.1968384 5.5905457l0 0c-2.8701477 0 -5.196869 -2.5029907 -5.196869 -5.5905457z" fill-rule="evenodd"/><path fill="#ffff00" d="m289.60104 61.586613l0 0c0 -3.087574 2.3267212 -5.5905495 5.196869 -5.5905495l0 0c1.3782654 0 2.7001038 0.5890007 3.6747131 1.6374359c0.9746094 1.0484314 1.5221252 2.4704094 1.5221252 3.9531136l0 0c0 3.087574 -2.3267212 5.5905495 -5.1968384 5.5905495l0 0c-2.8701477 0 -5.196869 -2.5029755 -5.196869 -5.5905495z" fill-rule="evenodd"/><path stroke="#000000" stroke-width="1.0" stroke-linejoin="round" stroke-linecap="butt" d="m289.60104 61.586613l0 0c0 -3.087574 2.3267212 -5.5905495 5.196869 -5.5905495l0 0c1.3782654 0 2.7001038 0.5890007 3.6747131 1.6374359c0.9746094 1.0484314 1.5221252 2.4704094 1.5221252 3.9531136l0 0c0 3.087574 -2.3267212 5.5905495 -5.1968384 5.5905495l0 0c-2.8701477 0 -5.196869 -2.5029755 -5.196869 -5.5905495z" fill-rule="evenodd"/><path fill="#ffff00" d="m257.979 424.8071l0 0c0 -3.0875854 2.3267212 -5.590576 5.1968384 -5.590576l0 0c1.3782959 0 2.7001343 0.5890198 3.6747437 1.6374512c0.97457886 1.0484314 1.5221252 2.470398 1.5221252 3.953125l0 0c0 3.087555 -2.3267212 5.5905457 -5.196869 5.5905457l0 0c-2.8701172 0 -5.1968384 -2.5029907 -5.1968384 -5.5905457z" fill-rule="evenodd"/><path stroke="#000000" stroke-width="1.0" stroke-linejoin="round" stroke-linecap="butt" d="m257.979 424.8071l0 0c0 -3.0875854 2.3267212 -5.590576 5.1968384 -5.590576l0 0c1.3782959 0 2.7001343 0.5890198 3.6747437 1.6374512c0.97457886 1.0484314 1.5221252 2.470398 1.5221252 3.953125l0 0c0 3.087555 -2.3267212 5.5905457 -5.196869 5.5905457l0 0c-2.8701172 0 -5.1968384 -2.5029907 -5.1968384 -5.5905457z" fill-rule="evenodd"/><path fill="#ffff00" d="m257.979 98.038055l0 0c0 -3.0875702 2.3267212 -5.5905457 5.1968384 -5.5905457l0 0c1.3782959 0 2.7001343 0.5889969 3.6747437 1.6374283c0.97457886 1.0484314 1.5221252 2.4704132 1.5221252 3.9531174l0 0c0 3.0875778 -2.3267212 5.5905533 -5.196869 5.5905533l0 0c-2.8701172 0 -5.1968384 -2.5029755 -5.1968384 -5.5905533z" fill-rule="evenodd"/><path stroke="#000000" stroke-width="1.0" stroke-linejoin="round" stroke-linecap="butt" d="m257.979 98.038055l0 0c0 -3.0875702 2.3267212 -5.5905457 5.1968384 -5.5905457l0 0c1.3782959 0 2.7001343 0.5889969 3.6747437 1.6374283c0.97457886 1.0484314 1.5221252 2.4704132 1.5221252 3.9531174l0 0c0 3.0875778 -2.3267212 5.5905533 -5.196869 5.5905533l0 0c-2.8701172 0 -5.1968384 -2.5029755 -5.1968384 -5.5905533z" fill-rule="evenodd"/><path fill="#ffff00" d="m226.35695 424.8071l0 0c0 -3.0875854 2.3267212 -5.590576 5.1968536 -5.590576l0 0c1.3782959 0 2.7001343 0.5890198 3.6747284 1.6374512c0.9745941 1.0484314 1.5221252 2.470398 1.5221252 3.953125l0 0c0 3.087555 -2.326706 5.5905457 -5.1968536 5.5905457l0 0c-2.8701324 0 -5.1968536 -2.5029907 -5.1968536 -5.5905457z" fill-rule="evenodd"/><path stroke="#000000" stroke-width="1.0" stroke-linejoin="round" stroke-linecap="butt" d="m226.35695 424.8071l0 0c0 -3.0875854 2.3267212 -5.590576 5.1968536 -5.590576l0 0c1.3782959 0 2.7001343 0.5890198 3.6747284 1.6374512c0.9745941 1.0484314 1.5221252 2.470398 1.5221252 3.953125l0 0c0 3.087555 -2.326706 5.5905457 -5.1968536 5.5905457l0 0c-2.8701324 0 -5.1968536 -2.5029907 -5.1968536 -5.5905457z" fill-rule="evenodd"/><path fill="#ffff00" d="m226.35695 130.96194l0 0c0 -3.0875778 2.3267212 -5.5905533 5.1968536 -5.5905533l0 0c1.3782959 0 2.7001343 0.5890045 3.6747284 1.6374359c0.9745941 1.0484238 1.5221252 2.4704056 1.5221252 3.9531174l0 0c0 3.0875702 -2.326706 5.5905457 -5.1968536 5.5905457l0 0c-2.8701324 0 -5.1968536 -2.5029755 -5.1968536 -5.5905457z" fill-rule="evenodd"/><path stroke="#000000" stroke-width="1.0" stroke-linejoin="round" stroke-linecap="butt" d="m226.35695 130.96194l0 0c0 -3.0875778 2.3267212 -5.5905533 5.1968536 -5.5905533l0 0c1.3782959 0 2.7001343 0.5890045 3.6747284 1.6374359c0.9745941 1.0484238 1.5221252 2.4704056 1.5221252 3.9531174l0 0c0 3.0875702 -2.326706 5.5905457 -5.1968536 5.5905457l0 0c-2.8701324 0 -5.1968536 -2.5029755 -5.1968536 -5.5905457z" fill-rule="evenodd"/><path fill="#ffff00" d="m194.73491 424.8071l0 0c0 -3.0875854 2.326706 -5.590576 5.1968536 -5.590576l0 0c1.3782806 0 2.700119 0.5890198 3.6747284 1.6374512c0.9745941 1.0484314 1.5221252 2.470398 1.5221252 3.953125l0 0c0 3.087555 -2.3267212 5.5905457 -5.1968536 5.5905457l0 0c-2.8701477 0 -5.1968536 -2.5029907 -5.1968536 -5.5905457z" fill-rule="evenodd"/><path stroke="#000000" stroke-width="1.0" stroke-linejoin="round" stroke-linecap="butt" d="m194.73491 424.8071l0 0c0 -3.0875854 2.326706 -5.590576 5.1968536 -5.590576l0 0c1.3782806 0 2.700119 0.5890198 3.6747284 1.6374512c0.9745941 1.0484314 1.5221252 2.470398 1.5221252 3.953125l0 0c0 3.087555 -2.3267212 5.5905457 -5.1968536 5.5905457l0 0c-2.8701477 0 -5.1968536 -2.5029907 -5.1968536 -5.5905457z" fill-rule="evenodd"/><path fill="#ffff00" d="m194.73491 165.06168l0 0c0 -3.0875702 2.326706 -5.5905457 5.1968536 -5.5905457l0 0c1.3782806 0 2.700119 0.5890045 3.6747284 1.6374359c0.9745941 1.0484314 1.5221252 2.4704132 1.5221252 3.9531097l0 0c0 3.0875854 -2.3267212 5.590561 -5.1968536 5.590561l0 0c-2.8701477 0 -5.1968536 -2.5029755 -5.1968536 -5.590561z" fill-rule="evenodd"/><path stroke="#000000" stroke-width="1.0" stroke-linejoin="round" stroke-linecap="butt" d="m194.73491 165.06168l0 0c0 -3.0875702 2.326706 -5.5905457 5.1968536 -5.5905457l0 0c1.3782806 0 2.700119 0.5890045 3.6747284 1.6374359c0.9745941 1.0484314 1.5221252 2.4704132 1.5221252 3.9531097l0 0c0 3.0875854 -2.3267212 5.590561 -5.1968536 5.590561l0 0c-2.8701477 0 -5.1968536 -2.5029755 -5.1968536 -5.590561z" fill-rule="evenodd"/><path fill="#ffff00" d="m163.11285 424.8071l0 0c0 -3.0875854 2.3267212 -5.590576 5.1968536 -5.590576l0 0c1.3782959 0 2.7001343 0.5890198 3.6747284 1.6374512c0.9746094 1.0484314 1.5221252 2.470398 1.5221252 3.953125l0 0c0 3.087555 -2.326706 5.5905457 -5.1968536 5.5905457l0 0c-2.8701324 0 -5.1968536 -2.5029907 -5.1968536 -5.5905457z" fill-rule="evenodd"/><path stroke="#000000" stroke-width="1.0" stroke-linejoin="round" stroke-linecap="butt" d="m163.11285 424.8071l0 0c0 -3.0875854 2.3267212 -5.590576 5.1968536 -5.590576l0 0c1.3782959 0 2.7001343 0.5890198 3.6747284 1.6374512c0.9746094 1.0484314 1.5221252 2.470398 1.5221252 3.953125l0 0c0 3.087555 -2.326706 5.5905457 -5.1968536 5.5905457l0 0c-2.8701324 0 -5.1968536 -2.5029907 -5.1968536 -5.5905457z" fill-rule="evenodd"/><path fill="#ffff00" d="m163.11285 199.16405l0 0c0 -3.0875854 2.3267212 -5.590561 5.1968536 -5.590561l0 0c1.3782959 0 2.7001343 0.5890045 3.6747284 1.6374359c0.9746094 1.0484314 1.5221252 2.4704132 1.5221252 3.953125l0 0c0 3.0875702 -2.326706 5.5905457 -5.1968536 5.5905457l0 0c-2.8701324 0 -5.1968536 -2.5029755 -5.1968536 -5.5905457z" fill-rule="evenodd"/><path stroke="#000000" stroke-width="1.0" stroke-linejoin="round" stroke-linecap="butt" d="m163.11285 199.16405l0 0c0 -3.0875854 2.3267212 -5.590561 5.1968536 -5.590561l0 0c1.3782959 0 2.7001343 0.5890045 3.6747284 1.6374359c0.9746094 1.0484314 1.5221252 2.4704132 1.5221252 3.953125l0 0c0 3.0875702 -2.326706 5.5905457 -5.1968536 5.5905457l0 0c-2.8701324 0 -5.1968536 -2.5029755 -5.1968536 -5.5905457z" fill-rule="evenodd"/><path fill="#ffff00" d="m131.49081 424.8071l0 0c0 -3.0875854 2.326706 -5.590576 5.1968536 -5.590576l0 0c1.3782806 0 2.700119 0.5890198 3.6747284 1.6374512c0.9745941 1.0484314 1.5221252 2.470398 1.5221252 3.953125l0 0c0 3.087555 -2.3267212 5.5905457 -5.1968536 5.5905457l0 0c-2.8701477 0 -5.1968536 -2.5029907 -5.1968536 -5.5905457z" fill-rule="evenodd"/><path stroke="#000000" stroke-width="1.0" stroke-linejoin="round" stroke-linecap="butt" d="m131.49081 424.8071l0 0c0 -3.0875854 2.326706 -5.590576 5.1968536 -5.590576l0 0c1.3782806 0 2.700119 0.5890198 3.6747284 1.6374512c0.9745941 1.0484314 1.5221252 2.470398 1.5221252 3.953125l0 0c0 3.087555 -2.3267212 5.5905457 -5.1968536 5.5905457l0 0c-2.8701477 0 -5.1968536 -2.5029907 -5.1968536 -5.5905457z" fill-rule="evenodd"/><path fill="#ffff00" d="m131.49081 282.06168l0 0c0 -3.0875854 2.326706 -5.5905457 5.1968536 -5.5905457l0 0c1.3782806 0 2.700119 0.58898926 3.6747284 1.6374207c0.9745941 1.0484314 1.5221252 2.4704285 1.5221252 3.953125l0 0c0 3.0875854 -2.3267212 5.5905457 -5.1968536 5.5905457l0 0c-2.8701477 0 -5.1968536 -2.5029602 -5.1968536 -5.5905457z" fill-rule="evenodd"/><path stroke="#000000" stroke-width="1.0" stroke-linejoin="round" stroke-linecap="butt" d="m131.49081 282.06168l0 0c0 -3.0875854 2.326706 -5.5905457 5.1968536 -5.5905457l0 0c1.3782806 0 2.700119 0.58898926 3.6747284 1.6374207c0.9745941 1.0484314 1.5221252 2.4704285 1.5221252 3.953125l0 0c0 3.0875854 -2.3267212 5.5905457 -5.1968536 5.5905457l0 0c-2.8701477 0 -5.1968536 -2.5029602 -5.1968536 -5.5905457z" fill-rule="evenodd"/><path fill="#ffff00" d="m99.86877 424.8071l0 0c0 -3.0875854 2.326706 -5.590576 5.1968536 -5.590576l0 0c1.3782883 0 2.7001266 0.5890198 3.6747208 1.6374512c0.97460175 1.0484314 1.5221252 2.470398 1.5221252 3.953125l0 0c0 3.087555 -2.326706 5.5905457 -5.196846 5.5905457l0 0c-2.8701477 0 -5.1968536 -2.5029907 -5.1968536 -5.5905457z" fill-rule="evenodd"/><path stroke="#000000" stroke-width="1.0" stroke-linejoin="round" stroke-linecap="butt" d="m99.86877 424.8071l0 0c0 -3.0875854 2.326706 -5.590576 5.1968536 -5.590576l0 0c1.3782883 0 2.7001266 0.5890198 3.6747208 1.6374512c0.97460175 1.0484314 1.5221252 2.470398 1.5221252 3.953125l0 0c0 3.087555 -2.326706 5.5905457 -5.196846 5.5905457l0 0c-2.8701477 0 -5.1968536 -2.5029907 -5.1968536 -5.5905457z" fill-rule="evenodd"/><path fill="#ffff00" d="m99.86877 387.30316l0 0c0 -3.0875854 2.326706 -5.590576 5.1968536 -5.590576l0 0c1.3782883 0 2.7001266 0.5890198 3.6747208 1.6374512c0.97460175 1.0484314 1.5221252 2.470398 1.5221252 3.953125l0 0c0 3.087555 -2.326706 5.5905457 -5.196846 5.5905457l0 0c-2.8701477 0 -5.1968536 -2.5029907 -5.1968536 -5.5905457z" fill-rule="evenodd"/><path stroke="#000000" stroke-width="1.0" stroke-linejoin="round" stroke-linecap="butt" d="m99.86877 387.30316l0 0c0 -3.0875854 2.326706 -5.590576 5.1968536 -5.590576l0 0c1.3782883 0 2.7001266 0.5890198 3.6747208 1.6374512c0.97460175 1.0484314 1.5221252 2.470398 1.5221252 3.953125l0 0c0 3.087555 -2.326706 5.5905457 -5.196846 5.5905457l0 0c-2.8701477 0 -5.1968536 -2.5029907 -5.1968536 -5.5905457z" fill-rule="evenodd"/><path fill="#ffff00" d="m352.84515 424.8071l0 0c0 -3.0875854 2.3266907 -5.590576 5.1968384 -5.590576l0 0c1.3782959 0 2.7001343 0.5890198 3.6747437 1.6374512c0.97457886 1.0484314 1.5220947 2.470398 1.5220947 3.953125l0 0c0 3.087555 -2.3266907 5.5905457 -5.1968384 5.5905457l0 0c-2.8701477 0 -5.1968384 -2.5029907 -5.1968384 -5.5905457z" fill-rule="evenodd"/><path stroke="#000000" stroke-width="1.0" stroke-linejoin="round" stroke-linecap="butt" d="m352.84515 424.8071l0 0c0 -3.0875854 2.3266907 -5.590576 5.1968384 -5.590576l0 0c1.3782959 0 2.7001343 0.5890198 3.6747437 1.6374512c0.97457886 1.0484314 1.5220947 2.470398 1.5220947 3.953125l0 0c0 3.087555 -2.3266907 5.5905457 -5.1968384 5.5905457l0 0c-2.8701477 0 -5.1968384 -2.5029907 -5.1968384 -5.5905457z" fill-rule="evenodd"/><path fill="#ffff00" d="m352.84515 7.1587925l0 0c0 -3.087576 2.3266907 -5.590551 5.1968384 -5.590551l0 0c1.3782959 0 2.7001343 0.5890027 3.6747437 1.6374346c0.97457886 1.0484319 1.5220947 2.4704103 1.5220947 3.9531164l0 0c0 3.087576 -2.3266907 5.5905514 -5.1968384 5.5905514l0 0c-2.8701477 0 -5.1968384 -2.5029755 -5.1968384 -5.5905514z" fill-rule="evenodd"/><path stroke="#000000" stroke-width="1.0" stroke-linejoin="round" stroke-linecap="butt" d="m352.84515 7.1587925l0 0c0 -3.087576 2.3266907 -5.590551 5.1968384 -5.590551l0 0c1.3782959 0 2.7001343 0.5890027 3.6747437 1.6374346c0.97457886 1.0484319 1.5220947 2.4704103 1.5220947 3.9531164l0 0c0 3.087576 -2.3266907 5.5905514 -5.1968384 5.5905514l0 0c-2.8701477 0 -5.1968384 -2.5029755 -5.1968384 -5.5905514z" fill-rule="evenodd"/><path fill="#000000" fill-opacity="0.0" d="m359.17584 13.42126l-1.1338501 405.79526" fill-rule="evenodd"/><path stroke="#000000" stroke-width="3.0" stroke-linejoin="round" stroke-linecap="butt" stroke-dasharray="12.0,9.0" d="m359.17584 13.42126l-1.1338501 405.79526" fill-rule="evenodd"/><path fill="#000000" fill-opacity="0.0" d="m327.06036 8.011811l0 442.58267" fill-rule="evenodd"/><path stroke="#6aa84f" stroke-width="3.0" stroke-linejoin="round" stroke-linecap="butt" stroke-dasharray="3.0,9.0" d="m327.06036 8.011811l0 442.58267" fill-rule="evenodd"/><path fill="#000000" fill-opacity="0.0" d="m295.08136 67.185036l-0.28344727 352.0315" fill-rule="evenodd"/><path stroke="#000000" stroke-width="3.0" stroke-linejoin="round" stroke-linecap="butt" stroke-dasharray="12.0,9.0" d="m295.08136 67.185036l-0.28344727 352.0315" fill-rule="evenodd"/><path fill="#000000" fill-opacity="0.0" d="m263.30185 103.625984l-0.12600708 315.59055" fill-rule="evenodd"/><path stroke="#000000" stroke-width="3.0" stroke-linejoin="round" stroke-linecap="butt" stroke-dasharray="12.0,9.0" d="m263.30185 103.625984l-0.12600708 315.59055" fill-rule="evenodd"/><path fill="#000000" fill-opacity="0.0" d="m231.61679 136.53937l-0.06298828 282.67715" fill-rule="evenodd"/><path stroke="#000000" stroke-width="3.0" stroke-linejoin="round" stroke-linecap="butt" stroke-dasharray="12.0,9.0" d="m231.61679 136.53937l-0.06298828 282.67715" fill-rule="evenodd"/><path fill="#000000" fill-opacity="0.0" d="m199.96326 170.64961l-0.03149414 248.56691" fill-rule="evenodd"/><path stroke="#000000" stroke-width="3.0" stroke-linejoin="round" stroke-linecap="butt" stroke-dasharray="12.0,9.0" d="m199.96326 170.64961l-0.03149414 248.56691" fill-rule="evenodd"/><path fill="#000000" fill-opacity="0.0" d="m168.30971 204.7546l0 214.45668" fill-rule="evenodd"/><path stroke="#000000" stroke-width="3.0" stroke-linejoin="round" stroke-linecap="butt" stroke-dasharray="12.0,9.0" d="m168.30971 204.7546l0 214.45668" fill-rule="evenodd"/><path fill="#000000" fill-opacity="0.0" d="m136.68767 287.65222l0.5984192 131.55905" fill-rule="evenodd"/><path stroke="#000000" stroke-width="3.0" stroke-linejoin="round" stroke-linecap="butt" stroke-dasharray="12.0,9.0" d="m136.68767 287.65222l0.5984192 131.55905" fill-rule="evenodd"/><path fill="#000000" fill-opacity="0.0" d="m105.06562 392.8937l0 26.330688" fill-rule="evenodd"/><path stroke="#000000" stroke-width="3.0" stroke-linejoin="round" stroke-linecap="butt" stroke-dasharray="12.0,9.0" d="m105.06562 392.8937l0 26.330688" fill-rule="evenodd"/><path fill="#000000" fill-opacity="0.0" d="m105.06562 383.33728l27.937004 -95.68506" fill-rule="evenodd"/><path stroke="#000000" stroke-width="3.0" stroke-linejoin="round" stroke-linecap="butt" stroke-dasharray="12.0,9.0" d="m105.06562 383.33728l27.937004 -95.68506" fill-rule="evenodd"/><path fill="#000000" fill-opacity="0.0" d="m141.88452 425.6404l21.228333 0" fill-rule="evenodd"/><path stroke="#000000" stroke-width="3.0" stroke-linejoin="round" stroke-linecap="butt" stroke-dasharray="12.0,9.0,3.0,9.0" d="m141.88452 425.6404l21.228333 0" fill-rule="evenodd"/><path fill="#000000" fill-opacity="0.0" d="m196.25703 169.0148l-24.283463 26.204727" fill-rule="evenodd"/><path stroke="#000000" stroke-width="3.0" stroke-linejoin="round" stroke-linecap="butt" stroke-dasharray="12.0,9.0" d="m196.25703 169.0148l-24.283463 26.204727" fill-rule="evenodd"/><path fill="#000000" fill-opacity="0.0" d="m205.12862 424.8071l21.228333 0" fill-rule="evenodd"/><path stroke="#000000" stroke-width="3.0" stroke-linejoin="round" stroke-linecap="butt" stroke-dasharray="12.0,9.0" d="m205.12862 424.8071l21.228333 0" fill-rule="evenodd"/><path fill="#000000" fill-opacity="0.0" d="m235.22853 127.00883l24.283463 -25.007874" fill-rule="evenodd"/><path stroke="#000000" stroke-width="3.0" stroke-linejoin="round" stroke-linecap="butt" stroke-dasharray="12.0,9.0" d="m235.22853 127.00883l24.283463 -25.007874" fill-rule="evenodd"/><path fill="#000000" fill-opacity="0.0" d="m268.3727 424.8071l21.228333 0" fill-rule="evenodd"/><path stroke="#000000" stroke-width="3.0" stroke-linejoin="round" stroke-linecap="butt" stroke-dasharray="12.0,9.0" d="m268.3727 424.8071l21.228333 0" fill-rule="evenodd"/><path fill="#000000" fill-opacity="0.0" d="m322.7452 34.377003l-24.283447 23.244091" fill-rule="evenodd"/><path stroke="#000000" stroke-width="3.0" stroke-linejoin="round" stroke-linecap="butt" stroke-dasharray="12.0,9.0" d="m322.7452 34.377003l-24.283447 23.244091" fill-rule="evenodd"/><path fill="#000000" fill-opacity="0.0" d="m352.84515 424.8071l-21.228363 0" fill-rule="evenodd"/><path stroke="#000000" stroke-width="3.0" stroke-linejoin="round" stroke-linecap="butt" stroke-dasharray="12.0,9.0" d="m352.84515 424.8071l-21.228363 0" fill-rule="evenodd"/><path fill="#000000" fill-opacity="0.0" d="m385.60104 13.422572l82.01575 0l0 54.929134l-82.01575 0z" fill-rule="evenodd"/><path fill="#000000" d="m403.92157 33.12757l1.3125 -0.109375q0.09375 0.78125 0.421875 1.296875q0.34375 0.5 1.0625 0.8125q0.71875 0.3125 1.609375 0.3125q0.796875 0 1.40625 -0.234375q0.609375 -0.234375 0.90625 -0.640625q0.296875 -0.421875 0.296875 -0.90625q0 -0.5 -0.296875 -0.859375q-0.28125 -0.375 -0.9375 -0.625q-0.421875 -0.171875 -1.875 -0.5156231q-1.4375 -0.34375 -2.015625 -0.65625q-0.75 -0.390625 -1.125 -0.96875q-0.359375 -0.59375 -0.359375 -1.3125q0 -0.796875 0.4375 -1.484375q0.453125 -0.6875 1.3125 -1.046875q0.875 -0.359375 1.9375 -0.359375q1.171875 0 2.0625 0.375q0.890625 0.375 1.359375 1.109375q0.484375 0.734375 0.515625 1.65625l-1.328125 0.09375q-0.109375 -1.0 -0.734375 -1.5q-0.609375 -0.515625 -1.8125 -0.515625q-1.265625 0 -1.84375 0.46875q-0.578125 0.46875 -0.578125 1.109375q0 0.5625 0.421875 0.9375q0.390625 0.359375 2.078125 0.75q1.703125 0.375 2.328125 0.65625q0.921875 0.421875 1.359375 1.0781231q0.4375 0.640625 0.4375 1.484375q0 0.84375 -0.484375 1.59375q-0.484375 0.734375 -1.390625 1.140625q-0.890625 0.40625 -2.015625 0.40625q-1.421875 0 -2.390625 -0.40625q-0.953125 -0.421875 -1.5 -1.25q-0.546875 -0.828125 -0.578125 -1.890625zm12.916229 3.375l0 -9.249998l-3.453125 0l0 -1.234375l8.3125 0l0 1.234375l-3.46875 0l0 9.249998l-1.390625 0zm4.0515747 0l4.015625 -10.484373l1.5 0l4.296875 10.484373l-1.578125 0l-1.234375 -3.171875l-4.375 0l-1.15625 3.171875l-1.46875 0zm3.015625 -4.3125l3.5625 0l-1.09375 -2.906248q-0.5 -1.3125 -0.75 -2.171875q-0.203125 1.015625 -0.5625 2.0l-1.15625 3.078123zm7.9318542 4.3125l0 -10.484373l4.640625 0q1.40625 0 2.140625 0.28125q0.734375 0.28125 1.171875 1.0q0.4375 0.703125 0.4375 1.578125q0 1.109375 -0.734375 1.875q-0.71875 0.765625 -2.234375 0.984375q0.5625 0.25 0.84375 0.5156231q0.609375 0.5625 1.15625 1.390625l1.8125 2.859375l-1.734375 0l-1.390625 -2.1875q-0.609375 -0.9375 -1.0 -1.4375q-0.390625 -0.5 -0.703125 -0.703125q-0.3125 -0.2031231 -0.640625 -0.2812481q-0.234375 -0.046875 -0.765625 -0.046875l-1.609375 0l0 4.656248l-1.390625 0zm1.390625 -5.859373l2.984375 0q0.9375 0 1.46875 -0.1875q0.546875 -0.203125 0.828125 -0.640625q0.28125 -0.4375 0.28125 -0.9375q0 -0.75 -0.546875 -1.21875q-0.53125 -0.484375 -1.703125 -0.484375l-3.3125 0l0 3.46875zm11.569305 5.859373l0 -9.249998l-3.453125 0l0 -1.234375l8.3125 0l0 1.234375l-3.46875 0l0 9.249998l-1.390625 0z" fill-rule="nonzero"/><path fill="#000000" d="m405.34164 54.102573l0 -10.484375l3.96875 0q1.046875 0 1.59375 0.09375q0.765625 0.125 1.28125 0.484375q0.53125 0.359375 0.84375 1.015625q0.328125 0.65625 0.328125 1.4375q0 1.328125 -0.859375 2.265625q-0.84375 0.921875 -3.078125 0.921875l-2.6875 0l0 4.265625l-1.390625 0zm1.390625 -5.5l2.71875 0q1.34375 0 1.90625 -0.5q0.5625 -0.5 0.5625 -1.40625q0 -0.671875 -0.328125 -1.140625q-0.328125 -0.46875 -0.875 -0.609375q-0.359375 -0.09375 -1.296875 -0.09375l-2.6875 0l0 3.75zm7.9631042 0.390625q0 -2.609375 1.40625 -4.078125q1.40625 -1.484375 3.625 -1.484375q1.453125 0 2.609375 0.703125q1.171875 0.6875 1.78125 1.921875q0.609375 1.234375 0.609375 2.8125q0 1.59375 -0.640625 2.859375q-0.640625 1.265625 -1.828125 1.90625q-1.171875 0.640625 -2.546875 0.640625q-1.46875 0 -2.640625 -0.703125q-1.171875 -0.71875 -1.78125 -1.953125q-0.59375 -1.25 -0.59375 -2.625zm1.4375 0.015625q0 1.90625 1.015625 3.0q1.015625 1.078125 2.5625 1.078125q1.5625 0 2.578125 -1.09375q1.015625 -1.109375 1.015625 -3.125q0 -1.28125 -0.4375 -2.234375q-0.4375 -0.96875 -1.265625 -1.484375q-0.828125 -0.53125 -1.875 -0.53125q-1.46875 0 -2.53125 1.015625q-1.0625 1.015625 -1.0625 3.375zm10.618835 5.09375l0 -10.484375l1.390625 0l0 10.484375l-1.390625 0zm3.821991 0l0 -10.484375l1.4375 0l5.5 8.234375l0 -8.234375l1.328125 0l0 10.484375l-1.421875 0l-5.5 -8.25l0 8.25l-1.34375 0zm13.271759 0l0 -9.25l-3.453125 0l0 -1.234375l8.3125 0l0 1.234375l-3.46875 0l0 9.25l-1.390625 0z" fill-rule="nonzero"/><path fill="#000000" fill-opacity="0.0" d="m0 359.8399l82.01575 0l0 54.92914l-82.01575 0z" fill-rule="evenodd"/><path fill="#000000" d="m26.692047 382.9199l0 -10.484375l7.59375 0l0 1.234375l-6.203125 0l0 3.203125l5.796875 0l0 1.234375l-5.796875 0l0 3.578125l6.4375 0l0 1.234375l-7.828125 0zm9.728729 0l0 -10.484375l1.4375 0l5.5 8.234375l0 -8.234375l1.328125 0l0 10.484375l-1.421875 0l-5.5 -8.25l0 8.25l-1.34375 0zm10.599899 0l0 -10.484375l3.625 0q1.21875 0 1.859375 0.140625q0.90625 0.203125 1.546875 0.75q0.828125 0.703125 1.234375 1.796875q0.40625 1.09375 0.40625 2.5q0 1.1875 -0.28125 2.109375q-0.265625 0.921875 -0.703125 1.53125q-0.4375 0.609375 -0.96875 0.953125q-0.515625 0.34375 -1.25 0.53125q-0.71875 0.171875 -1.671875 0.171875l-3.796875 0zm1.390625 -1.234375l2.25 0q1.03125 0 1.625 -0.1875q0.59375 -0.203125 0.9375 -0.546875q0.5 -0.5 0.765625 -1.328125q0.28125 -0.84375 0.28125 -2.03125q0 -1.640625 -0.546875 -2.515625q-0.53125 -0.890625 -1.3125 -1.1875q-0.546875 -0.21875 -1.796875 -0.21875l-2.203125 0l0 8.015625z" fill-rule="nonzero"/><path fill="#000000" d="m19.740585 400.5199l0 -10.484375l3.96875 0q1.046875 0 1.59375 0.09375q0.765625 0.125 1.28125 0.484375q0.53125 0.359375 0.84375 1.015625q0.328125 0.65625 0.328125 1.4375q0 1.328125 -0.859375 2.265625q-0.84375 0.921875 -3.078125 0.921875l-2.6875 0l0 4.265625l-1.390625 0zm1.390625 -5.5l2.71875 0q1.34375 0 1.90625 -0.5q0.5625 -0.5 0.5625 -1.40625q0 -0.671875 -0.328125 -1.140625q-0.328125 -0.46875 -0.875 -0.609375q-0.359375 -0.09375 -1.296875 -0.09375l-2.6875 0l0 3.75zm7.9631042 0.390625q0 -2.609375 1.40625 -4.078125q1.40625 -1.484375 3.625 -1.484375q1.453125 0 2.609375 0.703125q1.171875 0.6875 1.78125 1.921875q0.609375 1.234375 0.609375 2.8125q0 1.59375 -0.640625 2.859375q-0.640625 1.265625 -1.828125 1.90625q-1.171875 0.640625 -2.546875 0.640625q-1.46875 0 -2.640625 -0.703125q-1.171875 -0.71875 -1.78125 -1.953125q-0.59375 -1.25 -0.59375 -2.625zm1.4375 0.015625q0 1.90625 1.015625 3.0q1.015625 1.078125 2.5625 1.078125q1.5625 0 2.578125 -1.09375q1.015625 -1.109375 1.015625 -3.125q0 -1.28125 -0.4375 -2.234375q-0.4375 -0.96875 -1.265625 -1.484375q-0.828125 -0.53125 -1.875 -0.53125q-1.46875 0 -2.53125 1.015625q-1.0625 1.015625 -1.0625 3.375zm10.618851 5.09375l0 -10.484375l1.390625 0l0 10.484375l-1.390625 0zm3.8219757 0l0 -10.484375l1.4375 0l5.5 8.234375l0 -8.234375l1.328125 0l0 10.484375l-1.421875 0l-5.5 -8.25l0 8.25l-1.34375 0zm13.271774 0l0 -9.25l-3.453125 0l0 -1.234375l8.3125 0l0 1.234375l-3.46875 0l0 9.25l-1.390625 0z" fill-rule="nonzero"/><path fill="#000000" fill-opacity="0.0" d="m396.479 38.719162l-32.566925 -28.188978" fill-rule="evenodd"/><path stroke="#000000" stroke-width="3.0" stroke-linejoin="round" stroke-linecap="butt" d="m396.479 38.719162l-18.957153 -16.40875" fill-rule="evenodd"/><path fill="#000000" stroke="#000000" stroke-width="3.0" stroke-linecap="butt" d="m380.76483 18.563791l-13.536743 -5.16335l7.050812 12.65659z" fill-rule="evenodd"/><path fill="#000000" fill-opacity="0.0" d="m67.30052 391.96588l32.566933 28.188965" fill-rule="evenodd"/><path stroke="#000000" stroke-width="3.0" stroke-linejoin="round" stroke-linecap="butt" d="m67.30052 391.96588l18.957146 16.408752" fill-rule="evenodd"/><path fill="#000000" stroke="#000000" stroke-width="3.0" stroke-linecap="butt" d="m83.01471 412.12125l13.536713 5.1633606l-7.050789 -12.656586z" fill-rule="evenodd"/></g></svg>